<svg xmlns="http://www.w3.org/2000/svg" viewBox="0 0 32 32" role="img" aria-label="Machine mind">
  <rect width="32" height="32" rx="8" fill="#141416"/>
  <path fill="none" stroke="#F2EFE9" stroke-width="1.6" stroke-linecap="round" stroke-linejoin="round"
    d="M10 20c-2.2-1-3-3.2-3-5.2C7 11.4 9.4 9 13 9c.6-1.7 2.2-3 4.2-3 2.4 0 4.3 1.7 4.7 4 2.4.4 4.1 2.5 4.1 5 0 2.2-1.4 4-3.4 4.7"/>
  <path fill="none" stroke="#F2EFE9" stroke-width="1.6" stroke-linecap="round"
    d="M13 9.2c1 2 1.2 4.2.2 6.4M19 10.2c.2 2.2-.4 4.3-1.6 6M11.5 14.5h3.2M16.2 16.2h3.4"/>
  <circle cx="16" cy="22.5" r="1.3" fill="#F2EFE9"/>
  <path fill="none" stroke="#F2EFE9" stroke-width="1.4" stroke-linecap="round" d="M16 23.8v3.2M13.5 27.2h5"/>
</svg>
